<svg width="30" height="30" viewBox="0 0 30 30" fill="none" xmlns="http://www.w3.org/2000/svg">
<path fill-rule="evenodd" clip-rule="evenodd" d="M16.535 3.35999C16.0962 3.0186 15.556 2.83325 15 2.83325C14.444 2.83325 13.9039 3.0186 13.465 3.35999L2.98501 11.51C2.04501 12.2437 2.56251 13.75 3.75376 13.75H5.00001V23.75C5.00001 24.413 5.2634 25.0489 5.73224 25.5178C6.20108 25.9866 6.83697 26.25 7.50001 26.25H22.5C23.163 26.25 23.7989 25.9866 24.2678 25.5178C24.7366 25.0489 25 24.413 25 23.75V13.75H26.2463C27.4363 13.75 27.9563 12.2437 27.015 11.5112L16.535 3.35999ZM16.25 23.75V16.25C16.25 15.9185 16.1183 15.6005 15.8839 15.3661C15.6495 15.1317 15.3315 15 15 15C14.6685 15 14.3505 15.1317 14.1161 15.3661C13.8817 15.6005 13.75 15.9185 13.75 16.25V23.75H7.50001V12.5125C7.50001 12.1162 7.31751 11.7625 7.03126 11.5312L15 5.33374L22.9688 11.5312C22.8223 11.6494 22.7042 11.7989 22.6231 11.9687C22.542 12.1385 22.4999 12.3243 22.5 12.5125V23.75H16.25Z" fill="black"/>
</svg>
