<svg width="39" height="35" viewBox="0 0 39 35" fill="none" xmlns="http://www.w3.org/2000/svg">
<path d="M8.84721 14.9887C8.90444 13.8073 9.48154 12.7119 10.4235 11.9966L17.1927 6.85628C18.5693 5.81091 20.4617 5.76808 21.8842 6.75009L28.5175 11.3292C29.4963 12.005 30.1236 13.0812 30.2292 14.2659L31.287 26.1323C31.5 28.5215 29.5767 30.5597 27.1791 30.4855L12.1936 30.0218C9.95815 29.9526 8.21375 28.064 8.32197 25.8301L8.84721 14.9887Z" fill="white"/>
<path fill-rule="evenodd" clip-rule="evenodd" d="M21.4957 3.92001C20.9252 3.52172 20.223 3.30548 19.5002 3.30548C18.7774 3.30548 18.0752 3.52172 17.5047 3.92001L3.88067 13.4283C2.65867 14.2844 3.33142 16.0417 4.88004 16.0417H6.50017V27.7083C6.50017 28.4819 6.84258 29.2238 7.45207 29.7707C8.06156 30.3177 8.88822 30.625 9.75017 30.625H29.2502C30.1121 30.625 30.9388 30.3177 31.5483 29.7707C32.1578 29.2238 32.5002 28.4819 32.5002 27.7083V16.0417H34.1203C35.6673 16.0417 36.3433 14.2844 35.1197 13.4298L21.4957 3.92001ZM21.1252 27.7083V18.9583C21.1252 18.5716 20.954 18.2006 20.6492 17.9271C20.3445 17.6537 19.9311 17.5 19.5002 17.5C19.0692 17.5 18.6559 17.6537 18.3511 17.9271C18.0464 18.2006 17.8752 18.5716 17.8752 18.9583V27.7083H9.75017V14.5979C9.75017 14.1356 9.51292 13.7229 9.14079 13.4531L19.5002 6.22271L29.8595 13.4531C29.6692 13.591 29.5156 13.7654 29.4102 13.9635C29.3047 14.1616 29.25 14.3784 29.2502 14.5979V27.7083H21.1252Z" fill="black"/>
</svg>
