<svg width="127" height="127" viewBox="0 0 127 127" fill="none" xmlns="http://www.w3.org/2000/svg">
<path d="M29.028 49.3739C29.0765 48.259 29.5886 47.215 30.4405 46.4941L61.0358 20.6058C62.4737 19.3891 64.5655 19.3404 66.0584 20.4888L96.4889 43.8969C97.3847 44.586 97.9472 45.6218 98.0373 46.7484L102.83 106.654C103.02 109.036 101.093 111.053 98.7046 110.97L30.4919 108.618C28.2701 108.542 26.537 106.668 26.6336 104.447L29.028 49.3739Z" fill="white"/>
<path fill-rule="evenodd" clip-rule="evenodd" d="M69.9986 14.224C68.1408 12.7788 65.8542 11.9941 63.5005 11.9941C61.1467 11.9941 58.8601 12.7788 57.0023 14.224L12.637 48.7257C8.65763 51.8319 10.8484 58.2083 15.8913 58.2083H21.1671V100.542C21.1671 103.349 22.2822 106.04 24.2669 108.025C26.2517 110.01 28.9436 111.125 31.7505 111.125H95.2505C98.0573 111.125 100.749 110.01 102.734 108.025C104.719 106.04 105.834 103.349 105.834 100.542V58.2083H111.11C116.147 58.2083 118.349 51.8319 114.364 48.7309L69.9986 14.224ZM68.7921 100.542V68.7917C68.7921 67.3882 68.2346 66.0423 67.2422 65.0499C66.2499 64.0575 64.9039 63.5 63.5005 63.5C62.097 63.5 60.7511 64.0575 59.7587 65.0499C58.7663 66.0423 58.2088 67.3882 58.2088 68.7917V100.542H31.7505V52.9696C31.7505 51.2921 30.9779 49.7946 29.7661 48.8156L63.5005 22.5795L97.2348 48.8156C96.6149 49.3159 96.1148 49.9487 95.7715 50.6675C95.4281 51.3863 95.25 52.1729 95.2505 52.9696V100.542H68.7921Z" fill="black"/>
</svg>
