<svg width="127" height="127" viewBox="0 0 127 127" fill="none" xmlns="http://www.w3.org/2000/svg">
<g clip-path="url(#clip0_89_90)">
<path d="M26.4584 41.8713C26.4584 40.5102 27.1505 39.2426 28.2953 38.5066L61.0116 17.4747C62.4903 16.5241 64.4164 16.6504 65.7584 17.7859L96.6251 43.9039C97.4385 44.5921 97.9437 45.5764 98.0286 46.6385L102.83 106.654C103.02 109.036 101.093 111.053 98.7047 110.97L30.3205 108.612C28.1663 108.538 26.4584 106.77 26.4584 104.615V41.8713Z" fill="black"/>
<path fill-rule="evenodd" clip-rule="evenodd" d="M69.9981 14.224C68.1403 12.7788 65.8537 11.9941 63.5 11.9941C61.1462 11.9941 58.8596 12.7788 57.0018 14.224L12.6365 48.7257C8.65715 51.8319 10.8479 58.2083 15.8909 58.2083H21.1666V100.542C21.1666 103.349 22.2817 106.04 24.2664 108.025C26.2512 110.01 28.9431 111.125 31.75 111.125H95.25C98.0569 111.125 100.749 110.01 102.734 108.025C104.718 106.04 105.833 103.349 105.833 100.542V58.2083H111.109C116.147 58.2083 118.348 51.8319 114.363 48.7309L69.9981 14.224Z" fill="black"/>
<rect x="58.2084" y="79.375" width="5.29167" height="31.75" fill="#D9D9D9"/>
</g>
<defs>
<clipPath id="clip0_89_90">
<rect width="127" height="127" fill="white"/>
</clipPath>
</defs>
</svg>
