<svg width="51" height="37" viewBox="0 0 51 37" fill="none" xmlns="http://www.w3.org/2000/svg">
<path d="M44.285 7.10709C43.1997 6.31931 41.911 5.69438 40.4926 5.26801C39.0743 4.84164 37.554 4.62219 36.0188 4.62219C34.4835 4.62219 32.9632 4.84164 31.5449 5.26801C30.1265 5.69438 28.8379 6.31931 27.7525 7.10709L25.5 8.74126L23.2475 7.10709C21.0552 5.51656 18.0817 4.62302 14.9813 4.62302C11.8808 4.62302 8.90735 5.51656 6.71501 7.10709C4.52266 8.69762 3.29102 10.8548 3.29102 13.1042C3.29102 15.3535 4.52266 17.5107 6.71501 19.1013L25.5 32.7296L44.285 19.1013C45.3709 18.3138 46.2323 17.3789 46.82 16.3499C47.4076 15.3209 47.7101 14.218 47.7101 13.1042C47.7101 11.9903 47.4076 10.8874 46.82 9.85842C46.2323 8.82942 45.3709 7.89451 44.285 7.10709Z" stroke="#1E1E1E" stroke-width="4" stroke-linecap="round" stroke-linejoin="round"/>
</svg>
