<svg width="35" height="35" viewBox="0 0 35 35" fill="none" xmlns="http://www.w3.org/2000/svg">
<path d="M7.94487 14.8741C7.99335 13.7591 8.5054 12.7151 9.35733 11.9943L15.036 7.18927C16.4738 5.97262 18.5656 5.92391 20.0586 7.07232L25.5724 11.3137C26.4682 12.0028 27.0307 13.0386 27.1208 14.1652L28.0799 26.1539C28.2705 28.5362 26.3432 30.5529 23.9548 30.4705L11.3254 30.035C9.10358 29.9584 7.3705 28.0847 7.46706 25.8636L7.94487 14.8741Z" fill="white"/>
<path fill-rule="evenodd" clip-rule="evenodd" d="M19.3743 3.61452C18.8623 3.21624 18.2322 3 17.5835 3C16.9348 3 16.3047 3.21624 15.7927 3.61452L3.56598 13.1229C2.46932 13.9789 3.07307 15.7362 4.46286 15.7362H5.91682V27.4029C5.91682 28.1764 6.22411 28.9183 6.77109 29.4653C7.31807 30.0122 8.05994 30.3195 8.83349 30.3195H26.3335C27.107 30.3195 27.8489 30.0122 28.3959 29.4653C28.9429 28.9183 29.2502 28.1764 29.2502 27.4029V15.7362H30.7041C32.0924 15.7362 32.6991 13.9789 31.601 13.1243L19.3743 3.61452ZM19 28L19.0418 18.6529C19.0418 18.2661 18.8882 17.8952 18.6147 17.6217C18.3412 17.3482 17.9703 17.1945 17.5835 17.1945C17.1967 17.1945 16.8258 17.3482 16.5523 17.6217C16.2788 17.8952 16.1252 18.2661 16.1252 18.6529L16.1252 28H8.83349L8.83349 14.2924C8.83349 13.8301 7.83396 13.3926 7.5 13.1229L17.5 5L27.5 13.1243C27.3291 13.2622 26.5717 13.4599 26.4771 13.658C26.3824 13.8561 26.3334 14.0729 26.3335 14.2924L26.3335 28H19Z" fill="black"/>
</svg>
