<svg width="24" height="14" viewBox="0 0 24 14" fill="none" xmlns="http://www.w3.org/2000/svg">
<path d="M5.33333 2.75V0H24V2.75H5.33333ZM5.33333 8.25V5.5H24V8.25H5.33333ZM5.33333 13.75V11H24V13.75H5.33333ZM1.33333 2.75C0.955556 2.75 0.638889 2.61823 0.383333 2.35469C0.127778 2.09115 0 1.76458 0 1.375C0 0.985417 0.127778 0.658854 0.383333 0.395312C0.638889 0.131771 0.955556 0 1.33333 0C1.71111 0 2.02778 0.131771 2.28333 0.395312C2.53889 0.658854 2.66667 0.985417 2.66667 1.375C2.66667 1.76458 2.53889 2.09115 2.28333 2.35469C2.02778 2.61823 1.71111 2.75 1.33333 2.75ZM1.33333 8.25C0.955556 8.25 0.638889 8.11823 0.383333 7.85469C0.127778 7.59115 0 7.26458 0 6.875C0 6.48542 0.127778 6.15885 0.383333 5.89531C0.638889 5.63177 0.955556 5.5 1.33333 5.5C1.71111 5.5 2.02778 5.63177 2.28333 5.89531C2.53889 6.15885 2.66667 6.48542 2.66667 6.875C2.66667 7.26458 2.53889 7.59115 2.28333 7.85469C2.02778 8.11823 1.71111 8.25 1.33333 8.25ZM1.33333 13.75C0.955556 13.75 0.638889 13.6182 0.383333 13.3547C0.127778 13.0911 0 12.7646 0 12.375C0 11.9854 0.127778 11.6589 0.383333 11.3953C0.638889 11.1318 0.955556 11 1.33333 11C1.71111 11 2.02778 11.1318 2.28333 11.3953C2.53889 11.6589 2.66667 11.9854 2.66667 12.375C2.66667 12.7646 2.53889 13.0911 2.28333 13.3547C2.02778 13.6182 1.71111 13.75 1.33333 13.75Z" fill="#1D1B20"/>
</svg>
