<svg width="51" height="34" viewBox="0 0 51 34" fill="none" xmlns="http://www.w3.org/2000/svg">
<path d="M37.1875 9.20837H37.2088M14.875 2.83337H36.125C41.993 2.83337 46.75 6.00469 46.75 9.91671V24.0834C46.75 27.9954 41.993 31.1667 36.125 31.1667H14.875C9.00697 31.1667 4.25 27.9954 4.25 24.0834V9.91671C4.25 6.00469 9.00697 2.83337 14.875 2.83337ZM34 16.1075C34.2622 17.2866 33.9602 18.4907 33.1367 19.5486C32.3133 20.6066 31.0104 21.4645 29.4135 22.0004C27.8165 22.5363 26.0067 22.7228 24.2415 22.5334C22.4764 22.3441 20.8457 21.7885 19.5815 20.9457C18.3173 20.1029 17.4839 19.0158 17.1999 17.839C16.9159 16.6622 17.1956 15.4557 17.9994 14.3911C18.8032 13.3264 20.0901 12.4578 21.6771 11.9089C23.264 11.3599 25.0702 11.1585 26.8388 11.3334C28.6427 11.5117 30.3128 12.0721 31.6023 12.9318C32.8919 13.7915 33.7325 14.9049 34 16.1075Z" stroke="#1E1E1E" stroke-width="4" stroke-linecap="round" stroke-linejoin="round"/>
</svg>
