<svg width="32" height="33" viewBox="0 0 32 33" fill="none" xmlns="http://www.w3.org/2000/svg">
<path d="M9.33333 12.375V9.625H28V12.375H9.33333ZM9.33333 17.875V15.125H28V17.875H9.33333ZM9.33333 23.375V20.625H28V23.375H9.33333ZM5.33333 12.375C4.95556 12.375 4.63889 12.2432 4.38333 11.9797C4.12778 11.7161 4 11.3896 4 11C4 10.6104 4.12778 10.2839 4.38333 10.0203C4.63889 9.75677 4.95556 9.625 5.33333 9.625C5.71111 9.625 6.02778 9.75677 6.28333 10.0203C6.53889 10.2839 6.66667 10.6104 6.66667 11C6.66667 11.3896 6.53889 11.7161 6.28333 11.9797C6.02778 12.2432 5.71111 12.375 5.33333 12.375ZM5.33333 17.875C4.95556 17.875 4.63889 17.7432 4.38333 17.4797C4.12778 17.2161 4 16.8896 4 16.5C4 16.1104 4.12778 15.7839 4.38333 15.5203C4.63889 15.2568 4.95556 15.125 5.33333 15.125C5.71111 15.125 6.02778 15.2568 6.28333 15.5203C6.53889 15.7839 6.66667 16.1104 6.66667 16.5C6.66667 16.8896 6.53889 17.2161 6.28333 17.4797C6.02778 17.7432 5.71111 17.875 5.33333 17.875ZM5.33333 23.375C4.95556 23.375 4.63889 23.2432 4.38333 22.9797C4.12778 22.7161 4 22.3896 4 22C4 21.6104 4.12778 21.2839 4.38333 21.0203C4.63889 20.7568 4.95556 20.625 5.33333 20.625C5.71111 20.625 6.02778 20.7568 6.28333 21.0203C6.53889 21.2839 6.66667 21.6104 6.66667 22C6.66667 22.3896 6.53889 22.7161 6.28333 22.9797C6.02778 23.2432 5.71111 23.375 5.33333 23.375Z" fill="#1D1B20"/>
</svg>
