<svg width="46" height="34" viewBox="0 0 46 34" fill="none" xmlns="http://www.w3.org/2000/svg">
<path d="M17.25 25.5V7.08333L40.25 4.25V22.6667M17.25 25.5C17.25 27.8472 14.6756 29.75 11.5 29.75C8.32436 29.75 5.75 27.8472 5.75 25.5C5.75 23.1528 8.32436 21.25 11.5 21.25C14.6756 21.25 17.25 23.1528 17.25 25.5ZM40.25 22.6667C40.25 25.0139 37.6756 26.9167 34.5 26.9167C31.3244 26.9167 28.75 25.0139 28.75 22.6667C28.75 20.3195 31.3244 18.4167 34.5 18.4167C37.6756 18.4167 40.25 20.3195 40.25 22.6667Z" stroke="#1E1E1E" stroke-width="4" stroke-linecap="round" stroke-linejoin="round"/>
</svg>
