<svg width="53" height="36" viewBox="0 0 53 36" fill="none" xmlns="http://www.w3.org/2000/svg">
<path d="M6.625 9L13.25 3H39.75L46.375 9M6.625 9V30C6.625 30.7956 7.09033 31.5587 7.91861 32.1213C8.7469 32.6839 9.87029 33 11.0417 33H41.9583C43.1297 33 44.2531 32.6839 45.0814 32.1213C45.9097 31.5587 46.375 30.7956 46.375 30V9M6.625 9H46.375M35.3333 15C35.3333 16.5913 34.4027 18.1174 32.7461 19.2426C31.0895 20.3679 28.8427 21 26.5 21C24.1573 21 21.9105 20.3679 20.2539 19.2426C18.5973 18.1174 17.6667 16.5913 17.6667 15" stroke="#1E1E1E" stroke-width="4" stroke-linecap="round" stroke-linejoin="round"/>
</svg>
