<svg width="80" height="34" viewBox="0 0 80 34" fill="none" xmlns="http://www.w3.org/2000/svg">
<path fill-rule="evenodd" clip-rule="evenodd" d="M77.0455 33.8761C76.5678 31.1028 75.7828 28.3845 74.7007 25.7722C72.788 21.1544 69.9844 16.9586 66.4501 13.4242C62.9158 9.88993 58.7199 7.08636 54.1021 5.17361C49.4843 3.26085 44.535 2.27637 39.5367 2.27637C34.5385 2.27637 29.5891 3.26085 24.9713 5.17361C20.3535 7.08637 16.1577 9.88994 12.6234 13.4243C9.08905 16.9586 6.28547 21.1544 4.37272 25.7722C3.29068 28.3845 2.5057 31.1028 2.02796 33.8761H0C0.496288 30.8394 1.34194 27.8629 2.52496 25.0068C4.53822 20.1464 7.48911 15.7301 11.2091 12.01C14.9292 8.29001 19.3455 5.33912 24.2059 3.32585C29.0664 1.31258 34.2758 0.276367 39.5367 0.276367C44.7976 0.276367 50.007 1.31258 54.8675 3.32585C59.728 5.33911 64.1443 8.29 67.8643 12.01C71.5843 15.7301 74.5352 20.1464 76.5485 25.0068C77.7315 27.8629 78.5772 30.8394 79.0735 33.8761H77.0455Z" fill="black"/>
</svg>
