<svg width="92" height="38" viewBox="0 0 92 38" fill="none" xmlns="http://www.w3.org/2000/svg">
<path fill-rule="evenodd" clip-rule="evenodd" d="M89.969 38C89.412 34.9247 88.4951 31.9091 87.2293 29.0101C84.9961 23.895 81.7197 19.2403 77.5819 15.3146C73.4438 11.3887 68.5256 8.26924 63.1055 6.13925C57.6852 4.00921 51.8725 2.91173 46 2.91173C40.1275 2.91173 34.3148 4.00922 28.8945 6.13925C23.4744 8.26924 18.5562 11.3887 14.4181 15.3146C10.2802 19.2403 7.00388 23.895 4.77065 29.0101C3.50494 31.9091 2.58795 34.9247 2.03096 38H0C0.577418 34.648 1.56132 31.3624 2.93773 28.2099C5.28011 22.8448 8.7134 17.9699 13.0416 13.8637C17.3697 9.75739 22.508 6.50012 28.163 4.27782C33.818 2.05553 39.8791 0.911728 46 0.911728C52.1209 0.911728 58.182 2.05553 63.837 4.27782C69.492 6.50012 74.6303 9.75738 78.9584 13.8636C83.2866 17.9699 86.7199 22.8448 89.0623 28.2099C90.4387 31.3624 91.4226 34.648 92 38H89.969Z" fill="#C8BDBD"/>
</svg>
