<svg width="32" height="31" viewBox="0 0 32 31" fill="none" xmlns="http://www.w3.org/2000/svg">
<path d="M12.4719 12.2082V10.9968C11.9816 10.9299 11.4863 10.8937 10.9899 10.8883C8.65304 10.8835 6.37552 11.5189 4.48959 12.7017C2.60365 13.8845 1.20797 15.5528 0.50614 17.4634C-0.195694 19.3739 -0.166963 21.4267 0.588143 23.3223C1.34325 25.2179 2.78522 26.857 4.70372 28.0007C3.26113 26.6762 2.29655 25.0222 1.92636 23.2382C1.55617 21.4542 1.7962 19.6165 2.61747 17.9469C3.43875 16.2772 4.80618 14.847 6.55477 13.8287C8.30336 12.8104 10.3584 12.2476 12.4719 12.2082Z" fill="#65D2E9"/>
<path d="M12.7386 25.8933C14.0293 25.8919 15.2697 25.464 16.2015 24.6984C17.1333 23.9329 17.6847 22.8887 17.7409 21.7835V1.2968H22.1086C22.0195 0.868829 21.9767 0.434721 21.9806 0H16.0083V20.4659C15.9603 21.5764 15.4123 22.6277 14.4794 23.3993C13.5465 24.171 12.3012 24.6029 11.0047 24.6046C10.1998 24.5985 9.40804 24.4291 8.69421 24.1103C9.15679 24.6596 9.76425 25.1074 10.4671 25.4173C11.1699 25.7271 11.9483 25.8902 12.7386 25.8933Z" fill="#65D2E9"/>
<path d="M30.2648 8.24727V7.10867C28.6577 7.10864 27.0863 6.70213 25.7475 5.94005C26.9207 7.10993 28.5064 7.92063 30.2648 8.24958V8.24727Z" fill="#65D2E9"/>
<path d="M25.7475 5.94013C24.429 4.6528 23.7021 2.99826 23.7024 1.28528H22.1086C22.3146 2.23215 22.7433 3.13317 23.3687 3.93344C23.9941 4.73371 24.803 5.41647 25.7461 5.94013H25.7475Z" fill="#E6436D"/>
<path d="M10.9939 16.0107C9.87579 16.0161 8.79179 16.3415 7.91413 16.9354C7.03648 17.5292 6.4155 18.3574 6.14984 19.2884C5.88419 20.2194 5.98909 21.1998 6.44788 22.0738C6.90668 22.9478 7.69305 23.6654 8.6821 24.1125C8.14119 23.4721 7.81732 22.7161 7.74627 21.9278C7.67522 21.1396 7.85976 20.3498 8.27949 19.6458C8.69922 18.9418 9.33781 18.351 10.1247 17.9385C10.9116 17.5261 11.8162 17.3081 12.7386 17.3087C13.2411 17.3132 13.7402 17.3797 14.2206 17.5061V12.297C13.7299 12.2341 13.2347 12.2013 12.7386 12.1988H12.4692V16.1597C11.9884 16.0492 11.4915 15.9991 10.9939 16.0107Z" fill="#E6436D"/>
<path d="M30.2648 8.24727V12.2081C27.289 12.2026 24.3908 11.3946 21.9806 9.89858V20.3065C21.9746 22.8006 20.8144 25.1909 18.7546 26.9527C16.6949 28.7145 13.9038 29.7039 10.994 29.7039C8.74336 29.7077 6.5469 29.1126 4.70776 28.0007C6.20743 29.3834 8.15814 30.3469 10.3058 30.7658C12.4535 31.1846 14.6985 31.0394 16.7485 30.349C18.7985 29.6586 20.5584 28.4551 21.799 26.8951C23.0396 25.3352 23.7033 23.4912 23.7038 21.6033V11.2277C26.1222 12.7138 29.0243 13.5108 32 13.5061V8.40547C31.4168 8.40437 30.8352 8.35136 30.2648 8.24727Z" fill="#E6436D"/>
<path d="M21.9806 20.3089V9.90098C24.4004 11.3882 27.3048 12.1849 30.2823 12.1782V8.21733C28.5243 7.89935 26.9346 7.10012 25.7529 5.94013C24.8097 5.41647 24.0008 4.73371 23.3755 3.93344C22.7501 3.13317 22.3214 2.23215 22.1154 1.28528H17.7409V21.7847C17.6983 22.6769 17.3326 23.5356 16.6945 24.2415C16.0564 24.9474 15.1777 25.4654 14.1803 25.7236C13.183 25.9817 12.1166 25.9672 11.1293 25.682C10.1421 25.3969 9.28293 24.8552 8.67132 24.1323C7.68197 23.6856 6.89521 22.9683 6.43609 22.0943C5.97696 21.2204 5.87182 20.2399 6.13738 19.3089C6.40293 18.3778 7.02395 17.5496 7.90171 16.9558C8.77948 16.362 9.86362 16.0367 10.9818 16.0316C11.4844 16.0351 11.9837 16.1017 12.4638 16.2291V12.2671C10.3387 12.2981 8.27005 12.8583 6.51002 13.8795C4.74999 14.9008 3.37461 16.3388 2.55157 18.0184C1.72854 19.698 1.49339 21.5466 1.87482 23.3388C2.25624 25.1309 3.23774 26.7893 4.69967 28.1116C6.55638 29.1853 8.7546 29.7415 10.9939 29.704C13.9034 29.704 16.694 28.7149 18.7537 26.9536C20.8133 25.1923 21.9739 22.8026 21.9806 20.3089Z" fill="black"/>
</svg>
